<svg width="1024" height="1024" viewBox="0 0 1024 1024" fill="none" xmlns="http://www.w3.org/2000/svg">
<path d="M860.146 68.7504C860.146 66.5301 859.269 65.0498 858.392 62.8295C822.427 -30.4225 697.868 -8.21986 634.711 53.9481C568.045 117.596 463.661 109.456 378.574 79.1117C376.82 78.3716 375.065 77.6316 374.188 76.8915C169.805 -19.3209 70.684 156.822 124.192 307.061C138.227 353.687 163.665 397.353 192.612 438.798C234.717 494.305 202.261 504.666 147.876 487.644C137.35 483.944 125.069 483.944 114.543 487.644C59.2806 506.146 173.314 584.597 199.63 604.579C252.26 643.064 276.821 702.272 255.769 759.259C242.611 802.925 210.156 846.59 156.648 861.392C153.139 862.132 150.507 862.872 146.999 862.872C86.4731 868.793 83.8417 921.34 118.052 956.124C119.806 957.605 121.56 959.085 123.315 960.565C425.942 1184.07 603.132 759.999 424.187 568.315C371.557 499.486 285.593 451.38 245.243 375.89C219.804 331.484 219.804 264.875 270.681 233.791C306.645 214.549 389.978 251.554 427.696 266.356C428.573 267.096 429.451 267.096 430.328 267.836C625.062 361.828 905.76 282.638 860.146 68.7504Z" fill="#1C1C1C"/>
<path d="M538.231 406.234C418.934 422.516 408.408 582.376 543.494 582.376C681.211 580.156 684.72 389.211 538.231 406.234Z" fill="#1C1C1C"/>
</svg>
